<?xml version="1.0" encoding="UTF-8" standalone="no"?>
<svg
   xmlns:dc="http://purl.org/dc/elements/1.1/"
   xmlns:cc="http://creativecommons.org/ns#"
   xmlns:rdf="http://www.w3.org/1999/02/22-rdf-syntax-ns#"
   xmlns:svg="http://www.w3.org/2000/svg"
   xmlns="http://www.w3.org/2000/svg"
   xmlns:sodipodi="http://sodipodi.sourceforge.net/DTD/sodipodi-0.dtd"
   xmlns:inkscape="http://www.inkscape.org/namespaces/inkscape"
   width="12pt"
   height="12pt"
   viewBox="0 0 12 12"
   version="1.1"
   id="svg9"
   sodipodi:docname="Feminism symbol (bold, white).svg"
   inkscape:version="0.92.5 (2060ec1f9f, 2020-04-08)">
  <metadata
     id="metadata15">
    <rdf:RDF>
      <cc:Work
         rdf:about="">
        <dc:format>image/svg+xml</dc:format>
        <dc:type
           rdf:resource="http://purl.org/dc/dcmitype/StillImage" />
        <dc:title></dc:title>
      </cc:Work>
    </rdf:RDF>
  </metadata>
  <defs
     id="defs13" />
  <sodipodi:namedview
     pagecolor="currentColor"
     bordercolor="#666666"
     borderopacity="1"
     objecttolerance="10"
     gridtolerance="10"
     guidetolerance="10"
     inkscape:pageopacity="0"
     inkscape:pageshadow="2"
     inkscape:window-width="1920"
     inkscape:window-height="1009"
     id="namedview11"
     showgrid="false"
     inkscape:zoom="29.5"
     inkscape:cx="4.4745759"
     inkscape:cy="8"
     inkscape:window-x="0"
     inkscape:window-y="0"
     inkscape:window-maximized="1"
     inkscape:current-layer="svg9"
     inkscape:snap-center="true"
     inkscape:snap-object-midpoints="true"
     inkscape:snap-midpoints="true"
     inkscape:snap-smooth-nodes="true" />
  <g
     id="g827">
    <path
       style="fill:none;stroke:currentColor;stroke-width:0.99975002;stroke-linecap:butt;stroke-linejoin:miter;stroke-miterlimit:10;stroke-dasharray:none;stroke-opacity:1"
       d="M 8.5,3.5 C 8.5,2.1210938 7.3789062,1 6,1 4.6210938,1 3.5,2.1210938 3.5,3.5 3.5,4.8789062 4.6210938,6 6,6 7.3789062,6 8.5,4.8789062 8.5,3.5 Z m 0,0"
       id="path2"
       inkscape:connector-curvature="0" />
    <path
       style="fill:none;stroke:currentColor;stroke-width:0.99975002;stroke-linecap:butt;stroke-linejoin:miter;stroke-miterlimit:10;stroke-dasharray:none;stroke-opacity:1"
       d="M 6,11 V 6"
       id="path4"
       inkscape:connector-curvature="0" />
    <path
       style="fill:none;stroke:currentColor;stroke-width:0.99975002;stroke-linecap:butt;stroke-linejoin:miter;stroke-miterlimit:10;stroke-dasharray:none;stroke-opacity:1"
       d="m 3.5,8.5 h 5"
       id="path6"
       inkscape:connector-curvature="0" />
    <path
       d="M 6.4999865,5.9999999 V 5.1000224 c 0.699982,-0.3099921 1.17997,-0.8299791 1.17997,-1.3299666 0,-0.2399941 -0.179995,-0.4599886 -0.479988,-0.4599886 -0.249994,0 -0.39999,0.069998 -0.649984,0.069998 -0.499987,0 -0.419989,-0.239994 -0.529986,-0.239994 -0.109998,0 -0.219995,0.1299967 -0.219995,0.3299917 0,0.2999926 0.249994,0.4499888 0.499988,0.4499888 0.149996,0 0.199995,-0.059998 0.289992,-0.059998 0.06,0 0.09,0.01 0.09,0.039999 0,0.049999 -0.109997,0.1399965 -0.249994,0.1399965 -0.499987,0 -0.559986,-0.3399916 -1.17997,-0.3399916 -0.379991,0 -0.619985,0.2399941 -0.619985,0.6299844 0,0.4899876 0.319992,0.6999825 0.869979,0.7699807 v 0.8999774 z m 0.939976,-3.4699131 c 0,-0.1999951 -0.239994,-0.5199871 -0.38999,-0.5199871 -0.149996,0 -0.249994,0.839979 -0.249994,0.9399766 0,0.1499962 0.149996,0.3299916 0.299993,0.3299916 0.109997,0 0.339991,-0.5499862 0.339991,-0.7499811 z M 6.7899785,2.0900977 c 0,-0.2499937 -0.38999,-0.3699907 -0.529986,-0.3699907 -0.189996,0 -0.249994,0.4999875 -0.249994,0.999975 0,0.199995 0.09,0.4599885 0.339991,0.4599885 0.249994,0 0.439989,-0.559986 0.439989,-1.0899728 z m -0.839979,-0.049999 c 0,-0.1399965 -0.06,-0.2699933 -0.169995,-0.2699933 -0.199995,0 -0.579986,0.2499938 -0.579986,0.4999875 0,0.4999875 0.1,0.9999751 0.349991,0.9999751 0.269994,0 0.39999,-0.9499763 0.39999,-1.2299693 z m -0.78998,1.2299692 c 0,-0.4499887 -0.06,-0.9799755 -0.209995,-0.9799755 -0.199995,0 -0.449988,0.1599961 -0.449988,0.3799906 0,0.4199894 0.199995,0.9499761 0.499987,0.9499761 0.109997,0 0.159996,-0.079998 0.159996,-0.3499912 z"
       id="path8"
       inkscape:connector-curvature="0"
       style="fill:currentColor;fill-opacity:1;stroke:none;stroke-width:0.99974996;stroke-miterlimit:10;stroke-dasharray:none" />
  </g>
</svg>
